<svg xmlns="http://www.w3.org/2000/svg" id="Layer_1" data-name="Layer 1" viewBox="270 455 540 187"><defs><style>      .cls-1 {        fill: #eff1ba;      }      .cls-2 {        fill: #cbd222;      }      .cls-3 {        fill: #fff;      }      .cls-4 {        fill: #1b1b1d;      }    </style></defs><rect class="cls-3" width="2180" height="1080"></rect><g><g><rect class="cls-2" x="472.38" y="550.13" width="12.44" height="12.44" transform="translate(-253.22 501.38) rotate(-45)"></rect><path class="cls-2" d="M489.39,477.01c-3.43,2.05-6.2,4.76-8.19,8.13-2.05,3.43-3.1,7.19-3.1,11.4.22,6.25,2.38,11.45,6.58,15.66,2.05,2.05,4.43,3.65,7.08,4.81,2.71,1.16,5.64,1.72,8.74,1.72h6.47c1.11,0,2.1.39,2.93,1.22.77.83,1.16,1.77,1.16,2.93s-.39,2.1-1.16,2.93c-.83.77-1.83,1.22-2.93,1.22h-32.48c-4.37,0-8.41,1.16-12.06,3.43-3.65,2.32-6.47,5.48-8.41,9.46l-2.43,5.03h55.11c4.09,0,7.8-1,11.23-3.04,3.38-1.99,6.09-4.65,8.08-8.02,1.99-3.32,2.99-7.08,3.04-11.18-.22-6.2-2.38-11.34-6.47-15.44-2.05-2.05-4.37-3.6-7.03-4.76-2.71-1.16-5.53-1.72-8.58-1.72h-6.36c-1.22,0-2.32-.44-3.15-1.27-.89-.83-1.38-1.88-1.44-3.1.05-1.33.44-2.38,1.33-3.21.88-.89,1.88-1.33,3.15-1.33h28.55v-17.93h-28.33c-4.1,0-7.91,1-11.34,3.04Z"></path><rect class="cls-2" x="489.98" y="550.13" width="12.44" height="12.44" transform="translate(-248.06 513.77) rotate(-45)"></rect><path class="cls-2" d="M574.42,491.95c-.61,0-1.66,0-3.1-.06h-2.93c-.94,0-1.6,0-1.99.06h-5.98c-4.87,0-9.35,1.16-13.33,3.54-4.04,2.38-7.19,5.59-9.63,9.63-2.38,3.98-3.54,8.46-3.54,13.33s1.16,9.29,3.54,13.33c2.43,3.98,5.59,7.19,9.63,9.57,3.98,2.38,8.47,3.6,13.33,3.6h38.51v-60.31c-3.1,1.83-6.69,3.49-10.84,4.92-4.09,1.49-8.69,2.27-13.67,2.38ZM580.79,527.03h-20.58c-2.38,0-4.37-.83-6.09-2.49-1.66-1.72-2.49-3.71-2.49-6.09s.83-4.43,2.49-6.09c1.72-1.66,3.71-2.54,6.09-2.54h20.58v17.21Z"></path><rect class="cls-2" x="636.47" y="550.13" width="12.44" height="12.44" transform="translate(-205.16 617.4) rotate(-45)"></rect><path class="cls-2" d="M663.6,491.51c-4.7-2.82-9.96-4.21-15.66-4.21h-23.07v-25.95l-6.31,2.99c-3.6,1.77-6.42,4.32-8.47,7.58-2.1,3.32-3.15,6.92-3.15,10.9v62.13h72.15v-26.5c0-5.75-1.44-10.95-4.21-15.66-2.82-4.7-6.58-8.46-11.29-11.29ZM661.17,527.03h-36.63c.22-1.22.33-2.43.33-3.65v-18.15h20.03c.77,0,1.77.11,3.04.22,1.33.17,2.71.55,4.21,1.16s2.93,1.6,4.37,2.93c.83.83,1.55,1.66,2.1,2.49,1.71,2.6,2.54,5.42,2.54,8.41v6.58Z"></path><path class="cls-2" d="M725.34,491.95c-.61,0-1.66,0-3.1-.06h-2.93c-.94,0-1.6,0-1.99.06h-5.98c-4.87,0-9.35,1.16-13.33,3.54-4.04,2.38-7.19,5.59-9.63,9.63-2.38,3.98-3.54,8.46-3.54,13.33s1.16,9.29,3.54,13.33c2.43,3.98,5.59,7.19,9.63,9.57,3.98,2.38,8.46,3.6,13.33,3.6h38.51v-60.31c-3.1,1.83-6.7,3.49-10.84,4.92-4.09,1.49-8.69,2.27-13.67,2.38ZM731.7,527.03h-20.58c-2.38,0-4.37-.83-6.09-2.49-1.66-1.72-2.49-3.71-2.49-6.09s.83-4.43,2.49-6.09c1.71-1.66,3.71-2.54,6.09-2.54h20.58v17.21Z"></path><polygon class="cls-2" points="793.39 472.86 782.65 462.07 771.87 472.86 782.65 483.59 793.39 472.86"></polygon><path class="cls-2" d="M784.92,486.75c-4.98,0-9.52,1.22-13.61,3.65-4.09,2.43-7.36,5.7-9.79,9.79-2.43,4.09-3.65,8.63-3.65,13.61v31.15h17.98v-27.72c0-3.49,1.22-6.42,3.65-8.85,2.43-2.43,5.42-3.71,8.85-3.71h14.5v-17.93h-17.93Z"></path></g><g><path class="cls-2" d="M443.32,544.95h-91.69c-20.07,0-36.34-16.27-36.34-36.34h0c0-20.07,16.27-36.34,36.34-36.34h91.69v72.69Z"></path><path class="cls-2" d="M277.15,544.95h91.69c20.07,0,36.34,16.27,36.34,36.34h0c0,20.07-16.27,36.34-36.34,36.34h-91.69s0-72.69,0-72.69Z"></path></g><g><path class="cls-4" d="M377.64,509.71h-39.19c-8.71,23.26,19.59,36.48,19.59,36.48,0,0,28.3-13.22,19.59-36.48Z"></path><path class="cls-1" d="M377.64,582.66h-39.19c-8.71-23.26,19.59-36.48,19.59-36.48,0,0,28.3,13.22,19.59,36.48Z"></path><path class="cls-1" d="M369.83,524.25h-23.57c-5.24,13.99,11.78,21.94,11.78,21.94,0,0,17.02-7.95,11.78-21.94Z"></path><path class="cls-4" d="M369.83,568.13h-23.57c-5.24-13.99,11.78-21.94,11.78-21.94,0,0,17.02,7.95,11.78,21.94Z"></path></g><g><path class="cls-2" d="M438.32,565.03h-22.05c-.2,0-.3.1-.3.3v2.01c0,.2.1.3.3.3.87,0,1.66.07,2.37.22.71.15,1.31.4,1.79.75.48.35.86.81,1.12,1.38.26.57.39,1.28.39,2.13v37.57c0,1.19-.14,2.14-.41,2.84-.27.7-.66,1.23-1.16,1.6-.5.37-1.1.62-1.81.73-.71.11-1.5.17-2.37.17-.12,0-.21.04-.24.11-.04.07-.06.14-.06.19v2.01c0,.05.02.11.06.19.04.07.12.11.24.11h22.05c.15,0,.24-.03.26-.09.02-.06.04-.13.04-.21v-2.01c0-.2-.1-.3-.3-.3-.87,0-1.66-.07-2.37-.22-.71-.15-1.31-.4-1.79-.75-.48-.35-.86-.81-1.12-1.38-.26-.57-.39-1.28-.39-2.13v-37.57c0-1.19.14-2.14.41-2.84.27-.7.66-1.23,1.16-1.6.5-.37,1.1-.62,1.81-.73.71-.11,1.5-.17,2.37-.17.12,0,.21-.04.24-.11.04-.07.06-.14.06-.19v-2.01s-.02-.11-.06-.19c-.04-.07-.12-.11-.24-.11Z"></path><path class="cls-2" d="M501.34,615.4c-.22-.1-.54-.18-.95-.24-.41-.06-.86-.14-1.36-.24-.5-.1-1.01-.23-1.53-.39-.52-.16-1-.4-1.44-.73-.43-.32-.79-.73-1.06-1.23-.27-.5-.41-1.12-.41-1.87,0-1.59.02-2.95.06-4.07s.07-2.12.11-3c.04-.88.07-1.7.11-2.44.04-.75.06-1.55.06-2.42,0-.92-.04-1.95-.11-3.08-.07-1.13-.21-2.28-.41-3.43-.2-1.16-.49-2.29-.88-3.4-.39-1.11-.88-2.09-1.49-2.95s-1.36-1.55-2.26-2.07-1.95-.78-3.17-.78c-1.12,0-2.06.01-2.83.04-.77.03-1.48.09-2.13.21-.65.11-1.29.27-1.92.48-.63.21-1.36.51-2.16.9-.81.39-1.77.86-2.87,1.42-1.11.56-2.46,1.25-4.05,2.07-.12.07-.22.12-.3.13-.07.01-.17.02-.3.02s-.22-.12-.3-.37v-5.82c0-.6-.21-.9-.63-.9-.05,0-.13.02-.24.07-.11.05-.22.1-.32.15l-12.35,5.82c-.22.12-.37.25-.45.37-.07.12-.11.25-.11.37,0,.27.04.45.13.54.09.09.2.16.35.21.52.15,1.07.28,1.64.39s1.11.26,1.6.43c.5.17.91.43,1.23.76.32.34.49.8.49,1.4v18.95c0,1.12-.22,1.97-.67,2.56-.45.58-.97,1.01-1.57,1.27-.6.26-1.19.44-1.79.52-.6.09-1.06.21-1.38.35-.1.05-.19.21-.26.48-.07.27-.11.47-.11.6,0,.15.02.37.08.65.05.29.15.45.3.5h19.48c.15-.05.25-.22.3-.5.05-.29.07-.5.07-.65,0-.12-.04-.32-.11-.6-.07-.27-.16-.43-.26-.48-.32-.15-.78-.27-1.38-.35-.6-.09-1.19-.26-1.79-.52-.6-.26-1.12-.68-1.57-1.27-.45-.58-.67-1.44-.67-2.56v-18.28c.02-.25.14-.45.36-.62.21-.16.42-.3.62-.43,1.59-.77,2.86-1.38,3.8-1.83s1.71-.78,2.29-1.01,1.08-.37,1.49-.43c.41-.06.88-.09,1.4-.09,1.49,0,2.66.3,3.51.9.84.6,1.49,1.37,1.92,2.31.43.95.71,2.01.82,3.21.11,1.19.17,2.4.17,3.62,0,1.57.01,2.98.04,4.25.02,1.27.04,2.46.04,3.58,0,.52,0,.98-.02,1.38-.01.4-.03.76-.06,1.1-.03.34-.06.67-.09.99-.04.32-.08.67-.13,1.05-.15,1.19-.45,2.1-.91,2.7-.46.61-.97,1.06-1.53,1.36-.56.3-1.11.49-1.64.58-.54.09-.96.21-1.29.35-.1.05-.19.21-.26.48-.07.27-.11.47-.11.6,0,.15.02.37.07.65.05.29.15.45.3.5h20.82c.15-.05.25-.22.3-.5.05-.29.07-.5.07-.65,0-.12-.04-.32-.11-.6-.07-.27-.16-.43-.26-.48Z"></path><path class="cls-2" d="M535.23,600.48c-1.17-1.09-2.44-2.06-3.82-2.91-1.38-.85-2.66-1.63-3.82-2.37-1.17-.73-2.15-1.46-2.93-2.18-.78-.72-1.18-1.5-1.18-2.35,0-.97.12-1.77.35-2.39.24-.62.55-1.11.95-1.47.4-.36.84-.6,1.34-.73.5-.12.99-.19,1.49-.19.84,0,1.59.19,2.24.58.65.39,1.21.9,1.7,1.53.48.63.91,1.34,1.29,2.13.37.78.71,1.56,1.01,2.33.07.22.24.39.5.48.26.1.53.15.8.15.3,0,.6-.09.91-.28.31-.19.47-.49.47-.91,0-1.54,0-2.79-.02-3.75-.01-.96-.04-1.72-.07-2.29-.04-.57-.11-.99-.22-1.25-.11-.26-.26-.45-.43-.58-.12-.07-.42-.2-.88-.37-.46-.17-1.02-.35-1.68-.52-.66-.17-1.38-.33-2.16-.47-.78-.14-1.56-.21-2.33-.21-1.47,0-2.94.26-4.42.78-1.48.52-2.82,1.22-4.01,2.09-1.19.87-2.16,1.87-2.91,3-.75,1.13-1.12,2.29-1.12,3.49,0,2.06.37,3.8,1.12,5.2.75,1.41,1.67,2.62,2.78,3.64,1.11,1.02,2.31,1.92,3.62,2.69,1.31.77,2.51,1.53,3.62,2.28,1.11.75,2.03,1.55,2.78,2.41.75.86,1.12,1.91,1.12,3.15,0,.62-.04,1.22-.13,1.79-.09.57-.27,1.08-.54,1.53-.27.45-.66.81-1.16,1.08-.5.27-1.14.41-1.94.41-1.04,0-1.94-.14-2.69-.43-.75-.29-1.39-.69-1.94-1.21-.55-.52-1.03-1.16-1.46-1.9-.42-.75-.85-1.58-1.27-2.5-.07-.15-.19-.32-.34-.52s-.32-.39-.5-.58c-.19-.19-.39-.34-.6-.47s-.4-.19-.58-.19c-.32,0-.63.06-.91.17-.29.11-.43.37-.43.76,0,.72.04,1.62.11,2.71.07,1.08.17,2.13.28,3.13s.22,1.87.32,2.59c.1.72.17,1.08.22,1.08h1.34c.2,0,.37-.06.52-.19.15-.12.3-.27.47-.43.16-.16.33-.31.5-.43.17-.12.37-.19.6-.19.05,0,.26.06.63.19.37.12.85.27,1.42.43.57.16,1.21.3,1.9.43.7.12,1.39.19,2.09.19,1.37,0,2.77-.22,4.2-.65s2.73-1.05,3.9-1.85c1.17-.8,2.13-1.77,2.87-2.93.75-1.16,1.12-2.46,1.12-3.9,0-1.94-.39-3.62-1.18-5.06-.78-1.43-1.76-2.69-2.93-3.79Z"></path><path class="cls-2" d="M579.37,586.13c-.05-.46-.1-.88-.15-1.27-.05-.39-.1-.64-.15-.77-.08-.22-.19-.4-.34-.54-.15-.14-.42-.21-.82-.21h-9.51c-.27-.02-.44-.1-.5-.22-.06-.12-.09-.29-.09-.49.12-.47.26-.96.41-1.46.15-.5.29-.97.41-1.42.12-.45.23-.85.32-1.21.09-.36.13-.63.13-.8,0-.15-.1-.27-.3-.37-.2-.1-.37-.15-.52-.15-.67,0-1.33.21-1.98.62s-1.25.88-1.81,1.42-1.06,1.08-1.49,1.62c-.44.55-.78.96-1.03,1.23-.42.4-.91.83-1.46,1.31-.55.47-1.11.95-1.68,1.42-.57.47-1.15.93-1.73,1.36s-1.13.81-1.62,1.14c-.07.05-.14.15-.19.3-.05.15-.08.29-.08.41.02.2.14.39.34.56.2.17.47.26.82.26h2.8v20.86c0,1.14.24,2.25.73,3.32.48,1.07,1.15,2.02,2,2.85.85.83,1.85,1.5,3.02,2s2.43.75,3.77.75c.97,0,1.9-.17,2.78-.5s1.7-.76,2.44-1.27c.75-.51,1.42-1.06,2.03-1.66.61-.6,1.13-1.16,1.55-1.68.42-.52.76-.97,1.01-1.34.25-.37.39-.58.41-.63.05-.1.12-.24.21-.43.09-.19.13-.44.13-.77,0-.15-.03-.36-.09-.63-.06-.27-.27-.41-.62-.41-.5,0-.95.17-1.34.5-.4.34-.86.7-1.38,1.1-.52.4-1.14.76-1.87,1.1-.72.34-1.66.5-2.8.5-.4,0-.8-.1-1.19-.3s-.75-.5-1.06-.9c-.31-.4-.57-.9-.76-1.49-.2-.6-.3-1.29-.3-2.09v-18.54c0-.12,0-.21.02-.26.01-.05.08-.07.2-.07h11.23c.2,0,.3-.07.3-.22,0-.3-.02-.68-.06-1.14-.04-.46-.08-.92-.13-1.38Z"></path><path class="cls-2" d="M603.52,574.06c1.59,0,2.86-.47,3.81-1.4.94-.93,1.42-2.2,1.42-3.79s-.47-2.86-1.42-3.81c-.95-.94-2.21-1.42-3.81-1.42s-2.86.47-3.81,1.42c-.94.95-1.42,2.21-1.42,3.81s.47,2.85,1.42,3.79,2.21,1.4,3.81,1.4Z"></path><path class="cls-2" d="M613.96,615.4c-.32-.15-.78-.27-1.38-.35-.6-.09-1.19-.26-1.79-.52-.6-.26-1.12-.67-1.57-1.23s-.67-1.39-.67-2.48v-27.53c0-.6-.21-.9-.63-.9-.05,0-.13.03-.24.07-.11.05-.22.1-.32.15l-12.35,5.82c-.22.12-.37.25-.45.37-.07.12-.11.25-.11.37,0,.27.04.45.13.54.09.09.2.16.35.21.52.15,1.07.28,1.64.39s1.11.26,1.6.43c.5.17.91.43,1.23.77.32.34.48.8.48,1.4v17.91c0,1.1-.22,1.92-.67,2.48s-.97.97-1.57,1.23c-.6.26-1.19.44-1.79.52-.6.09-1.06.21-1.38.35-.1.05-.19.21-.26.48-.07.27-.11.47-.11.6,0,.15.02.37.08.65.05.29.15.45.3.5h19.48c.15-.05.25-.22.3-.5.05-.29.07-.5.07-.65,0-.12-.04-.32-.11-.6-.07-.27-.16-.43-.26-.48Z"></path><path class="cls-2" d="M653.44,586.13c-.05-.46-.1-.88-.15-1.27-.05-.39-.1-.64-.15-.77-.08-.22-.19-.4-.34-.54-.15-.14-.42-.21-.82-.21h-9.51c-.27-.02-.44-.1-.5-.22-.06-.12-.09-.29-.09-.49.12-.47.26-.96.41-1.46.15-.5.29-.97.41-1.42.12-.45.23-.85.32-1.21.09-.36.13-.63.13-.8,0-.15-.1-.27-.3-.37-.2-.1-.37-.15-.52-.15-.67,0-1.33.21-1.98.62s-1.25.88-1.81,1.42-1.06,1.08-1.49,1.62c-.44.55-.78.96-1.03,1.23-.42.4-.91.83-1.46,1.31-.55.47-1.11.95-1.68,1.42-.57.47-1.15.93-1.73,1.36s-1.13.81-1.62,1.14c-.07.05-.14.15-.19.3-.05.15-.08.29-.08.41.02.2.14.39.34.56.2.17.47.26.82.26h2.8v20.86c0,1.14.24,2.25.73,3.32.48,1.07,1.15,2.02,2,2.85.85.83,1.85,1.5,3.02,2s2.43.75,3.77.75c.97,0,1.9-.17,2.78-.5s1.7-.76,2.44-1.27c.75-.51,1.42-1.06,2.03-1.66.61-.6,1.13-1.16,1.55-1.68.42-.52.76-.97,1.01-1.34.25-.37.39-.58.41-.63.05-.1.12-.24.21-.43.09-.19.13-.44.13-.77,0-.15-.03-.36-.09-.63-.06-.27-.27-.41-.62-.41-.5,0-.95.17-1.34.5-.4.34-.86.7-1.38,1.1-.52.4-1.14.76-1.87,1.1-.72.34-1.66.5-2.8.5-.4,0-.8-.1-1.19-.3s-.75-.5-1.06-.9c-.31-.4-.57-.9-.76-1.49-.2-.6-.3-1.29-.3-2.09v-18.54c0-.12,0-.21.02-.26.01-.05.08-.07.2-.07h11.23c.2,0,.3-.07.3-.22,0-.3-.02-.68-.06-1.14-.04-.46-.08-.92-.13-1.38Z"></path><path class="cls-2" d="M708.26,611.45l-2.16.15c-1.12,0-1.93-.24-2.42-.71-.5-.47-.81-1.26-.93-2.35v-25.74c0-.22-.12-.34-.37-.34-.15,0-.3.01-.47.04-.16.03-.32.06-.47.11l-11.38,3.25c-.27.07-.44.19-.5.34-.06.15-.09.32-.09.52,0,.22.06.38.17.47.11.09.26.15.43.19.17.04.37.06.58.07.21.01.4.04.58.09.67.15,1.3.48,1.88.99.58.51.91,1.13.99,1.85v19.96c-.32.45-.75.88-1.27,1.29-.52.41-1.08.77-1.68,1.08-.6.31-1.22.57-1.87.77-.65.2-1.27.3-1.87.3-.85,0-1.67-.12-2.46-.37-.8-.25-1.5-.61-2.13-1.08-.62-.47-1.13-1.05-1.51-1.73s-.58-1.45-.58-2.29v-25.18c0-.42-.12-.63-.37-.63-.15,0-.3.01-.47.04-.16.03-.32.06-.47.11l-11.38,3.28c-.27.07-.44.19-.5.34-.06.15-.09.32-.09.52,0,.22.06.38.17.47s.26.15.43.19c.17.04.37.06.58.07.21.01.4.04.58.09.67.15,1.3.48,1.88.99.58.51.91,1.13.99,1.85v22.54c0,1.02.36,1.89,1.08,2.61.72.72,1.62,1.31,2.7,1.77,1.08.46,2.25.8,3.51,1.01,1.25.21,2.41.32,3.45.32.62,0,1.19-.05,1.72-.15.52-.1,1.01-.24,1.47-.41.46-.17.93-.35,1.4-.54.47-.19.98-.38,1.53-.58l5.97-2.91s.02-.07.08-.07h.15c.17,0,.3.05.37.15v3.58c0,.2.02.4.06.62.04.21.14.32.32.32.02,0,.14-.03.33-.09.2-.06.32-.11.37-.13l11.34-4.66c.25-.12.4-.32.47-.6.06-.27.09-.43.09-.48,0-.15-.01-.39-.04-.73s-.09-.5-.19-.5Z"></path><path class="cls-2" d="M747.96,586.13c-.05-.46-.1-.88-.15-1.27-.05-.39-.1-.64-.15-.77-.07-.22-.19-.4-.34-.54-.15-.14-.42-.21-.82-.21h-9.51c-.27-.02-.44-.1-.5-.22-.06-.12-.09-.29-.09-.49.12-.47.26-.96.41-1.46.15-.5.29-.97.41-1.42.12-.45.23-.85.32-1.21.09-.36.13-.63.13-.8,0-.15-.1-.27-.3-.37-.2-.1-.37-.15-.52-.15-.67,0-1.33.21-1.98.62-.65.41-1.25.88-1.81,1.42s-1.06,1.08-1.49,1.62c-.44.55-.78.96-1.03,1.23-.42.4-.91.83-1.46,1.31-.55.47-1.11.95-1.68,1.42s-1.15.93-1.73,1.36-1.13.81-1.62,1.14c-.07.05-.14.15-.19.3-.05.15-.07.29-.07.41.02.2.14.39.34.56.2.17.47.26.82.26h2.8v20.86c0,1.14.24,2.25.73,3.32.49,1.07,1.15,2.02,2,2.85.84.83,1.85,1.5,3.02,2,1.17.5,2.42.75,3.77.75.97,0,1.9-.17,2.78-.5.88-.34,1.7-.76,2.44-1.27.75-.51,1.42-1.06,2.03-1.66.61-.6,1.12-1.16,1.55-1.68.42-.52.76-.97,1.01-1.34.25-.37.39-.58.41-.63.05-.1.12-.24.2-.43.09-.19.13-.44.13-.77,0-.15-.03-.36-.09-.63-.06-.27-.27-.41-.62-.41-.5,0-.94.17-1.34.5s-.86.7-1.38,1.1c-.52.4-1.14.76-1.87,1.1s-1.65.5-2.8.5c-.4,0-.8-.1-1.19-.3-.4-.2-.75-.5-1.06-.9-.31-.4-.57-.9-.77-1.49-.2-.6-.3-1.29-.3-2.09v-18.54c0-.12,0-.21.02-.26.01-.05.08-.07.21-.07h11.23c.2,0,.3-.07.3-.22,0-.3-.02-.68-.06-1.14-.04-.46-.08-.92-.13-1.38Z"></path><path class="cls-2" d="M771.7,597.23h22.01c.32,0,.55-.21.69-.62.14-.41.21-.79.21-1.14,0-1.07-.22-2.18-.67-3.34-.45-1.16-1-2.24-1.64-3.26-.65-1.02-1.34-1.92-2.07-2.69-.73-.77-1.39-1.31-1.96-1.6-.5-.3-.99-.58-1.47-.84-.48-.26-1.01-.49-1.57-.67-.56-.19-1.18-.34-1.85-.45s-1.43-.17-2.28-.17c-2.84,0-5.37.5-7.59,1.49-2.23,1-4.11,2.39-5.65,4.18s-2.72,3.91-3.54,6.36c-.82,2.45-1.23,5.13-1.23,8.04,0,1.99.35,3.95,1.06,5.88.71,1.93,1.75,3.65,3.11,5.17,1.37,1.52,3.05,2.74,5.04,3.67s4.27,1.4,6.83,1.4c1.27,0,2.61-.22,4.03-.67,1.42-.45,2.8-1.04,4.16-1.77,1.36-.73,2.63-1.57,3.82-2.5,1.19-.93,2.2-1.88,3.02-2.85.1-.1.15-.19.15-.26s-.04-.15-.11-.22c-.12-.17-.3-.39-.52-.65s-.45-.49-.67-.69c-.12-.12-.22-.19-.3-.19-.05,0-.15.02-.3.07-.65.52-1.33,1.05-2.05,1.57-.72.52-1.49,1-2.31,1.42-.82.42-1.68.76-2.57,1.03-.9.26-1.83.39-2.8.39-1.54,0-3.01-.3-4.4-.91-1.39-.61-2.63-1.5-3.69-2.69-1.07-1.18-1.92-2.62-2.56-4.33-.63-1.7-.95-3.65-.95-5.84,0-.65.04-1.19.13-1.64.09-.45.25-.67.5-.67ZM772.57,591.22c.31-.77.78-1.52,1.4-2.24.62-.72,1.38-1.34,2.28-1.85.9-.51,1.94-.76,3.13-.76.99,0,1.9.19,2.7.56.81.37,1.5.89,2.07,1.55.57.66,1.01,1.42,1.32,2.28s.47,1.77.47,2.74c0,.57-.32.86-.97.86h-12.2c-.2,0-.36-.09-.49-.26-.12-.17-.19-.47-.19-.9,0-.55.15-1.21.47-1.98Z"></path></g></g></svg>
